<svg id="visual" viewBox="0 0 900 600" width="900" height="600" xmlns="http://www.w3.org/2000/svg" xmlns:xlink="http://www.w3.org/1999/xlink" version="1.1"><rect x="0" y="0" width="900" height="600" fill="#d00000"></rect><path d="M0 318L25 345.8C50 373.7 100 429.3 150 455.8C200 482.3 250 479.7 300 461.2C350 442.7 400 408.3 450 410.7C500 413 550 452 600 452.2C650 452.3 700 413.7 750 384.3C800 355 850 335 875 325L900 315L900 601L875 601C850 601 800 601 750 601C700 601 650 601 600 601C550 601 500 601 450 601C400 601 350 601 300 601C250 601 200 601 150 601C100 601 50 601 25 601L0 601Z" fill="#ffba08" stroke-linecap="round" stroke-linejoin="miter"></path></svg>